<svg width="32" height="32" viewBox="0 0 32 32" fill="none" xmlns="http://www.w3.org/2000/svg">
<path d="M15.218 16.7709L11.5969 13.1497C11.4252 12.9781 11.4252 12.6998 11.5969 12.5281C11.7685 12.3565 12.0468 12.3565 12.2184 12.5281L15.8524 16.1621C15.6228 11.5182 11.7727 7.81079 7.07288 7.81079V8.00418C7.07288 12.6342 10.6711 16.4393 15.218 16.7709Z" fill="white"/>
<path d="M21.2351 12.0886C21.4067 11.917 21.685 11.917 21.8567 12.0886C22.0283 12.2602 22.0283 12.5385 21.8567 12.7102L17.7722 16.7946H18.4692C23.3163 16.7946 27.2597 12.8512 27.2597 8.00415V6.46582H25.9411C21.094 6.46582 17.1506 10.4092 17.1506 15.2563V16.1731L21.2351 12.0886Z" fill="white"/>
<path d="M25.8123 15.881L21.8595 19.834C21.5956 20.5563 20.9392 21.1 20.1131 21.2716L14.8563 22.8049C14.6189 22.8741 14.3701 22.734 14.3077 22.4929C14.2473 22.2599 14.3969 22.0232 14.6279 21.9558L19.8844 20.4226C19.8974 20.4195 19.9105 20.4163 19.9235 20.4131C20.5934 20.2784 20.9487 19.832 21.0579 19.4588C21.1484 19.1498 21.0887 18.8557 20.8982 18.6721C20.5728 18.3585 19.8989 18.3409 19.0492 18.6239C19.0298 18.6304 19.0098 18.6356 18.9897 18.6394L15.4735 19.2987C15.3309 19.3254 15.1843 19.2801 15.0817 19.1775C12.4859 16.5818 9.34831 16.742 6.47325 19.617C6.39083 19.6994 6.27903 19.7458 6.16246 19.7458H4.29458C4.11248 19.7458 3.96484 19.8934 3.96484 20.0755V24.2508C3.96484 24.4329 4.11247 24.5805 4.29458 24.5805H7.04152C7.07671 24.5805 7.112 24.5848 7.14619 24.5932C13.9129 26.2449 18.4539 25.9913 21.0282 23.8174L27.3884 17.4571C27.6657 17.1799 27.7788 16.7822 27.6791 16.3822C27.6567 16.2922 27.6215 16.2054 27.5751 16.1252C27.189 15.4579 26.317 15.3765 25.8123 15.881Z" fill="white"/>
</svg>
