<svg width="40" height="40" viewBox="0 0 40 40" fill="none" xmlns="http://www.w3.org/2000/svg">
<path d="M20.9692 15.6073C19.1461 15.865 17.5538 17.5765 17.5384 17.5919C17.5155 17.6156 17.4897 17.6363 17.4615 17.6535C14.9846 19.2611 13.5884 18.0381 13.5307 17.965C11.9461 16.5381 13.4 14.1458 13.4615 14.0458C14.1106 12.9669 14.8966 11.9766 15.8 11.0996H9.07304L6.15381 20.7304C6.18516 20.7478 6.21369 20.7698 6.23842 20.7958C10.7692 25.9188 16.7846 30.465 19.1577 32.1804C19.4046 32.363 19.7117 32.445 20.0169 32.4098C20.322 32.3746 20.6024 32.2248 20.8013 31.9907C21.0001 31.7567 21.1027 31.4558 21.0882 31.149C21.0737 30.8422 20.9431 30.5523 20.723 30.3381L17.4577 27.0727C17.386 27.0006 17.3458 26.9031 17.3458 26.8015C17.3458 26.6999 17.386 26.6024 17.4577 26.5304C17.4934 26.4943 17.5359 26.4657 17.5828 26.4462C17.6297 26.4267 17.68 26.4166 17.7307 26.4166C17.7815 26.4166 17.8318 26.4267 17.8786 26.4462C17.9255 26.4657 17.9681 26.4943 18.0038 26.5304L19.7423 28.2688L21.2807 29.8073L22.05 30.5958C22.3259 30.8645 22.6962 31.0145 23.0814 31.0136C23.4666 31.0126 23.8361 30.8609 24.1107 30.5907C24.3853 30.3206 24.5432 29.9537 24.5506 29.5686C24.5579 29.1834 24.4141 28.8108 24.15 28.5304L21.1538 25.4035L20.5846 24.815C20.5485 24.7792 20.5199 24.7367 20.5004 24.6898C20.4809 24.643 20.4708 24.5927 20.4708 24.5419C20.4708 24.4911 20.4809 24.4409 20.5004 24.394C20.5199 24.3471 20.5485 24.3046 20.5846 24.2688C20.6203 24.2328 20.6629 24.2042 20.7097 24.1847C20.7566 24.1651 20.8069 24.1551 20.8577 24.1551C20.9084 24.1551 20.9587 24.1651 21.0056 24.1847C21.0524 24.2042 21.095 24.2328 21.1307 24.2688L25.5038 28.8073C25.7156 29.0169 25.9836 29.1605 26.2754 29.2206C26.5672 29.2808 26.8702 29.2549 27.1476 29.1461C27.425 29.0374 27.6648 28.8504 27.838 28.608C28.0111 28.3655 28.1102 28.078 28.123 27.7804C28.1294 27.5707 28.0916 27.362 28.0121 27.1678C27.9326 26.9737 27.8131 26.7984 27.6615 26.6535L25.0384 24.115L23.2115 22.3419C23.1708 22.308 23.1376 22.266 23.1139 22.2187C23.0902 22.1713 23.0766 22.1195 23.0738 22.0666C23.071 22.0137 23.0792 21.9608 23.0979 21.9113C23.1165 21.8617 23.1452 21.8165 23.1821 21.7785C23.219 21.7405 23.2634 21.7106 23.3124 21.6905C23.3614 21.6705 23.4141 21.6608 23.467 21.6621C23.52 21.6633 23.5721 21.6755 23.6201 21.6979C23.6682 21.7202 23.711 21.7522 23.7461 21.7919L28.9384 26.8188C29.0746 26.9587 29.2377 27.0696 29.4178 27.1447C29.598 27.2199 29.7915 27.2578 29.9867 27.2561C30.1819 27.2545 30.3748 27.2134 30.5536 27.1352C30.7325 27.0571 30.8937 26.9435 31.0275 26.8014C31.1613 26.6592 31.265 26.4915 31.3322 26.3082C31.3995 26.125 31.4289 25.93 31.4188 25.735C31.4087 25.5401 31.3592 25.3492 31.2733 25.1739C31.1875 24.9986 31.067 24.8425 30.9192 24.715L20.9692 15.6073Z" fill="white"/>
<path d="M7.90011 8.84635C5.90342 7.94867 3.7262 7.52481 1.53857 7.60789V22.6925H3.88857C4.13938 22.6931 4.38356 22.6119 4.58412 22.4614C4.78469 22.3108 4.93072 22.0989 5.00011 21.8579L8.53088 10.231C8.61159 9.96293 8.5921 9.67469 8.47605 9.41996C8.36001 9.16522 8.15532 8.96136 7.90011 8.84635Z" fill="white"/>
<path d="M22.2156 9.5922C21.3861 9.25077 20.4593 9.2302 19.6156 9.53451C18.1425 10.073 15.9925 11.3653 14.104 14.4499C14.104 14.473 12.9233 16.373 14.0348 17.396C14.0733 17.4307 15.0656 18.2614 16.9886 17.0345C17.2656 16.746 19.0002 15.0076 21.0502 14.8191C21.1032 14.8147 21.1565 14.8213 21.2068 14.8385C21.2571 14.8557 21.3033 14.8832 21.3425 14.9191L31.4233 24.1499C31.4694 24.1922 31.5117 24.2384 31.554 24.2845C32.7079 24.1076 33.4771 23.0537 33.7002 22.6691L30.0463 12.7114L22.2156 9.5922Z" fill="white"/>
<path d="M37.6925 9.44276C35.4987 9.42819 33.3228 9.83829 31.2848 10.6505C31.0107 10.7679 30.7928 10.9869 30.6766 11.2615C30.5604 11.5361 30.5551 11.8451 30.6617 12.1235L34.9425 23.7735C35.026 23.9983 35.1761 24.1922 35.3725 24.3296C35.569 24.4671 35.8027 24.5414 36.0425 24.5428H38.4617V9.46199C38.2694 9.45045 38.004 9.44276 37.6925 9.44276Z" fill="white"/>
</svg>
