<svg width="27" height="27" viewBox="0 0 27 27" fill="none" xmlns="http://www.w3.org/2000/svg">
<path d="M24.2386 11.0453H23.6178C23.5664 9.02264 22.9066 7.06247 21.7243 5.4205C20.5421 3.77853 18.8924 2.53102 16.9906 1.84073H22.1345C22.2092 2.12996 22.3868 2.38202 22.634 2.54967C22.8812 2.71732 23.1811 2.78905 23.4774 2.75141C23.7738 2.71377 24.0462 2.56935 24.2436 2.34521C24.4411 2.12108 24.5501 1.83263 24.5501 1.53392C24.5501 1.23521 24.4411 0.94675 24.2436 0.722618C24.0462 0.498485 23.7738 0.354064 23.4774 0.316425C23.1811 0.278787 22.8812 0.350514 22.634 0.518163C22.3868 0.685813 22.2092 0.937873 22.1345 1.2271H14.7273V0.613462C14.7273 0.532089 14.695 0.454048 14.6374 0.396509C14.5799 0.338969 14.5018 0.306644 14.4205 0.306644H12.5795C12.4982 0.306644 12.4201 0.338969 12.3626 0.396509C12.3051 0.454048 12.2727 0.532089 12.2727 0.613462V1.2271H4.86553C4.79085 0.937873 4.61325 0.685813 4.36602 0.518163C4.1188 0.350514 3.81891 0.278787 3.52258 0.316425C3.22625 0.354064 2.95382 0.498485 2.75636 0.722618C2.55889 0.94675 2.44995 1.23521 2.44995 1.53392C2.44995 1.83263 2.55889 2.12108 2.75636 2.34521C2.95382 2.56935 3.22625 2.71377 3.52258 2.75141C3.81891 2.78905 4.1188 2.71732 4.36602 2.54967C4.61325 2.38202 4.79085 2.12996 4.86553 1.84073H10.0094C8.1075 2.53102 6.45783 3.77853 5.27561 5.4205C4.09339 7.06247 3.43353 9.02264 3.38212 11.0453H2.76137C2.67999 11.0453 2.60195 11.0776 2.54441 11.1351C2.48687 11.1927 2.45455 11.2707 2.45455 11.3521V13.193C2.45455 13.2744 2.48687 13.3524 2.54441 13.41C2.60195 13.4675 2.67999 13.4998 2.76137 13.4998H4.60228C4.68365 13.4998 4.76169 13.4675 4.81923 13.41C4.87677 13.3524 4.90909 13.2744 4.90909 13.193V11.3521C4.90909 11.2707 4.87677 11.1927 4.81923 11.1351C4.76169 11.0776 4.68365 11.0453 4.60228 11.0453H3.99582C4.05739 8.7863 4.92604 6.62408 6.4444 4.95036C7.96277 3.27663 10.0304 2.20211 12.2727 1.92146V2.45437C12.2727 2.53574 12.3051 2.61378 12.3626 2.67132C12.4201 2.72886 12.4982 2.76119 12.5795 2.76119H14.4205C14.5018 2.76119 14.5799 2.72886 14.6374 2.67132C14.695 2.61378 14.7273 2.53574 14.7273 2.45437V1.92146C16.9696 2.20211 19.0372 3.27663 20.5556 4.95036C22.074 6.62408 22.9426 8.7863 23.0042 11.0453H22.3977C22.3164 11.0453 22.2383 11.0776 22.1808 11.1351C22.1232 11.1927 22.0909 11.2707 22.0909 11.3521V13.193C22.0909 13.2744 22.1232 13.3524 22.1808 13.41C22.2383 13.4675 22.3164 13.4998 22.3977 13.4998H24.2386C24.32 13.4998 24.3981 13.4675 24.4556 13.41C24.5131 13.3524 24.5455 13.2744 24.5455 13.193V11.3521C24.5455 11.2707 24.5131 11.1927 24.4556 11.1351C24.3981 11.0776 24.32 11.0453 24.2386 11.0453Z" fill="white"/>
<path d="M14.3881 4.15793C14.3572 4.0961 14.3063 4.04651 14.2437 4.01721C14.1811 3.98791 14.1104 3.98061 14.0431 3.99649C13.9759 4.01238 13.9159 4.05051 13.873 4.10473C13.8301 4.15894 13.8068 4.22604 13.8068 4.29517V14.2391C13.8068 14.2985 13.8241 14.3566 13.8565 14.4064C13.8889 14.4562 13.935 14.4955 13.9893 14.5196C14.248 14.632 14.4601 14.8302 14.5898 15.0807C14.7195 15.3312 14.759 15.6188 14.7016 15.895C14.6441 16.1712 14.4933 16.4192 14.2745 16.5972C14.0556 16.7752 13.7821 16.8724 13.5 16.8724C13.2179 16.8724 12.9444 16.7752 12.7256 16.5972C12.5067 16.4192 12.3559 16.1712 12.2984 15.895C12.241 15.6188 12.2805 15.3312 12.4102 15.0807C12.5399 14.8302 12.752 14.632 13.0107 14.5196C13.065 14.4955 13.1112 14.4562 13.1435 14.4064C13.1759 14.3566 13.1932 14.2985 13.1932 14.2391V4.29517C13.1932 4.22604 13.1699 4.15894 13.127 4.10473C13.0841 4.05051 13.0242 4.01238 12.9569 3.99649C12.8896 3.98061 12.8189 3.98791 12.7563 4.01721C12.6937 4.04651 12.6428 4.0961 12.6119 4.15793L6.78238 15.817C6.76108 15.8596 6.75 15.9066 6.75 15.9543C6.75 16.0019 6.76108 16.0489 6.78238 16.0915L9.01488 20.5565H17.9851L20.2176 16.0915C20.2389 16.0489 20.25 16.0019 20.25 15.9543C20.25 15.9066 20.2389 15.8596 20.2176 15.817L14.3881 4.15793Z" fill="white"/>
<path d="M18.7159 21.1704H8.28411C8.11466 21.1704 7.97729 21.3078 7.97729 21.4772V23.3181C7.97729 23.4876 8.11466 23.625 8.28411 23.625H18.7159C18.8854 23.625 19.0227 23.4876 19.0227 23.3181V21.4772C19.0227 21.3078 18.8854 21.1704 18.7159 21.1704Z" fill="white"/>
<path d="M8.89771 26.386C8.89771 26.4674 8.93003 26.5454 8.98757 26.603C9.04511 26.6605 9.12315 26.6928 9.20452 26.6928H17.7954C17.8768 26.6928 17.9548 26.6605 18.0124 26.603C18.0699 26.5454 18.1023 26.4674 18.1023 26.386V24.2383H8.89771V26.386Z" fill="white"/>
</svg>
