<svg width="27" height="27" viewBox="0 0 27 27" fill="none" xmlns="http://www.w3.org/2000/svg">
<path d="M24.2386 11.0455H23.6178C23.5664 9.02289 22.9066 7.06271 21.7243 5.42074C20.5421 3.77878 18.8924 2.53126 16.9906 1.84098H22.1345C22.2092 2.1302 22.3868 2.38226 22.634 2.54991C22.8812 2.71756 23.1811 2.78929 23.4774 2.75165C23.7738 2.71401 24.0462 2.56959 24.2436 2.34546C24.4411 2.12133 24.5501 1.83287 24.5501 1.53416C24.5501 1.23545 24.4411 0.946994 24.2436 0.722862C24.0462 0.498729 23.7738 0.354308 23.4774 0.316669C23.1811 0.279031 22.8812 0.350758 22.634 0.518408C22.3868 0.686057 22.2092 0.938117 22.1345 1.22734H14.7273V0.613706C14.7273 0.532333 14.695 0.454292 14.6374 0.396753C14.5799 0.339213 14.5018 0.306888 14.4205 0.306888H12.5795C12.4982 0.306888 12.4201 0.339213 12.3626 0.396753C12.3051 0.454292 12.2727 0.532333 12.2727 0.613706V1.22734H4.86553C4.79085 0.938117 4.61325 0.686057 4.36602 0.518408C4.1188 0.350758 3.81891 0.279031 3.52258 0.316669C3.22625 0.354308 2.95382 0.498729 2.75636 0.722862C2.55889 0.946994 2.44995 1.23545 2.44995 1.53416C2.44995 1.83287 2.55889 2.12133 2.75636 2.34546C2.95382 2.56959 3.22625 2.71401 3.52258 2.75165C3.81891 2.78929 4.1188 2.71756 4.36602 2.54991C4.61325 2.38226 4.79085 2.1302 4.86553 1.84098H10.0094C8.1075 2.53126 6.45783 3.77878 5.27561 5.42074C4.09339 7.06271 3.43353 9.02289 3.38212 11.0455H2.76137C2.67999 11.0455 2.60195 11.0778 2.54441 11.1354C2.48687 11.1929 2.45455 11.271 2.45455 11.3523V13.1933C2.45455 13.2746 2.48687 13.3527 2.54441 13.4102C2.60195 13.4677 2.67999 13.5001 2.76137 13.5001H4.60228C4.68365 13.5001 4.76169 13.4677 4.81923 13.4102C4.87677 13.3527 4.90909 13.2746 4.90909 13.1933V11.3523C4.90909 11.271 4.87677 11.1929 4.81923 11.1354C4.76169 11.0778 4.68365 11.0455 4.60228 11.0455H3.99582C4.05739 8.78654 4.92604 6.62433 6.4444 4.9506C7.96277 3.27688 10.0304 2.20235 12.2727 1.9217V2.45461C12.2727 2.53599 12.3051 2.61403 12.3626 2.67157C12.4201 2.72911 12.4982 2.76143 12.5795 2.76143H14.4205C14.5018 2.76143 14.5799 2.72911 14.6374 2.67157C14.695 2.61403 14.7273 2.53599 14.7273 2.45461V1.9217C16.9696 2.20235 19.0372 3.27688 20.5556 4.9506C22.074 6.62433 22.9426 8.78654 23.0042 11.0455H22.3977C22.3164 11.0455 22.2383 11.0778 22.1808 11.1354C22.1232 11.1929 22.0909 11.271 22.0909 11.3523V13.1933C22.0909 13.2746 22.1232 13.3527 22.1808 13.4102C22.2383 13.4677 22.3164 13.5001 22.3977 13.5001H24.2386C24.32 13.5001 24.3981 13.4677 24.4556 13.4102C24.5131 13.3527 24.5455 13.2746 24.5455 13.1933V11.3523C24.5455 11.271 24.5131 11.1929 24.4556 11.1354C24.3981 11.0778 24.32 11.0455 24.2386 11.0455Z" fill="#3664D0"/>
<path d="M14.3881 4.15818C14.3572 4.09634 14.3063 4.04676 14.2437 4.01745C14.1811 3.98815 14.1104 3.98085 14.0431 3.99674C13.9759 4.01262 13.9159 4.05076 13.873 4.10497C13.8301 4.15918 13.8068 4.22629 13.8068 4.29542V14.2394C13.8068 14.2988 13.8241 14.3569 13.8565 14.4067C13.8889 14.4564 13.935 14.4958 13.9893 14.5198C14.248 14.6323 14.4601 14.8305 14.5898 15.081C14.7195 15.3315 14.759 15.619 14.7016 15.8952C14.6441 16.1714 14.4933 16.4194 14.2745 16.5974C14.0556 16.7754 13.7821 16.8726 13.5 16.8726C13.2179 16.8726 12.9444 16.7754 12.7256 16.5974C12.5067 16.4194 12.3559 16.1714 12.2984 15.8952C12.241 15.619 12.2805 15.3315 12.4102 15.081C12.5399 14.8305 12.752 14.6323 13.0107 14.5198C13.065 14.4958 13.1112 14.4564 13.1435 14.4067C13.1759 14.3569 13.1932 14.2988 13.1932 14.2394V4.29542C13.1932 4.22629 13.1699 4.15918 13.127 4.10497C13.0841 4.05076 13.0242 4.01262 12.9569 3.99674C12.8896 3.98085 12.8189 3.98815 12.7563 4.01745C12.6937 4.04676 12.6428 4.09634 12.6119 4.15818L6.78238 15.8173C6.76108 15.8599 6.75 15.9069 6.75 15.9545C6.75 16.0021 6.76108 16.0491 6.78238 16.0917L9.01488 20.5568H17.9851L20.2176 16.0917C20.2389 16.0491 20.25 16.0021 20.25 15.9545C20.25 15.9069 20.2389 15.8599 20.2176 15.8173L14.3881 4.15818Z" fill="#3664D0"/>
<path d="M18.7159 21.1704H8.28411C8.11466 21.1704 7.97729 21.3078 7.97729 21.4772V23.3181C7.97729 23.4876 8.11466 23.625 8.28411 23.625H18.7159C18.8854 23.625 19.0227 23.4876 19.0227 23.3181V21.4772C19.0227 21.3078 18.8854 21.1704 18.7159 21.1704Z" fill="#3664D0"/>
<path d="M8.89771 26.3865C8.89771 26.4679 8.93003 26.5459 8.98757 26.6035C9.04511 26.661 9.12315 26.6933 9.20452 26.6933H17.7954C17.8768 26.6933 17.9548 26.661 18.0124 26.6035C18.0699 26.5459 18.1023 26.4679 18.1023 26.3865V24.2388H8.89771V26.3865Z" fill="#3664D0"/>
</svg>
