<svg width="30" height="30" viewBox="0 0 30 30" fill="none" xmlns="http://www.w3.org/2000/svg">
<g clip-path="url(#clip0_2042_159)">
<path d="M13.8832 13.8932L0.406641 8.21883C0.213574 8.1375 0 8.2793 0 8.48883V23.6587C0 24.042 0.233379 24.3868 0.589336 24.5291L13.6607 29.7577C13.8531 29.8347 14.0625 29.6929 14.0625 29.4857V14.1632C14.0625 14.0453 13.9918 13.9389 13.8832 13.8932Z" fill="white"/>
<path d="M15.1137 12.2811L28.14 6.79633C28.3741 6.69778 28.3804 6.36825 28.1502 6.26084L15.3965 0.309126C15.1451 0.19188 14.8549 0.19188 14.6036 0.309126L1.84988 6.26084C1.61966 6.36825 1.62593 6.69778 1.86007 6.79633L14.8863 12.2811C14.959 12.3117 15.041 12.3117 15.1137 12.2811Z" fill="white"/>
<path d="M15.9375 14.1632V29.4857C15.9375 29.6929 16.1469 29.8347 16.3393 29.7577L29.4107 24.5291C29.7666 24.3867 30 24.042 30 23.6587V8.48883C30 8.2793 29.7864 8.1375 29.5934 8.21883L16.1168 13.8932C16.0082 13.9389 15.9375 14.0453 15.9375 14.1632Z" fill="white"/>
</g>
<defs>
<clipPath id="clip0_2042_159">
<rect width="30" height="30" fill="white"/>
</clipPath>
</defs>
</svg>
