<svg width="36" height="40" viewBox="0 0 36 40" fill="none" xmlns="http://www.w3.org/2000/svg">
<path d="M35.3471 30.4359L18.5736 39.85C18.2174 40.05 17.783 40.05 17.4268 39.85L0.65332 30.4359C-0.144336 29.9891 -0.142773 28.8383 0.65332 28.3922L4.8252 26.0508L16.2799 32.4797C17.3482 33.0799 18.6538 33.079 19.7205 32.4797L31.1752 26.0508L35.3471 28.3922C36.1447 28.8391 36.1432 29.9898 35.3471 30.4359Z" fill="white"/>
<path d="M35.3471 18.9781L31.1752 16.6367L19.7205 23.0656C18.6541 23.6648 17.3478 23.6656 16.2799 23.0656L4.8252 16.6367L0.65332 18.9781C-0.142773 19.4242 -0.144336 20.575 0.65332 21.0219L17.4268 30.4359C17.783 30.6359 18.2174 30.6359 18.5736 30.4359L35.3471 21.0219C36.1432 20.5758 36.1447 19.425 35.3471 18.9781ZM7.64082 22.5641C6.99316 22.5641 6.46895 22.0391 6.46895 21.3922C6.46895 20.7445 6.99316 20.2203 7.64082 20.2203C8.28769 20.2203 8.81269 20.7445 8.81269 21.3922C8.81269 22.0391 8.28769 22.5641 7.64082 22.5641ZM12.6307 25.4664C11.983 25.4664 11.4588 24.9414 11.4588 24.2945C11.4588 23.6469 11.983 23.1227 12.6307 23.1227C13.2775 23.1227 13.8025 23.6469 13.8025 24.2945C13.8025 24.9414 13.2775 25.4664 12.6307 25.4664ZM18.0002 28.1852C17.3533 28.1852 16.8283 27.6609 16.8283 27.0133C16.8283 26.3664 17.3533 25.8414 18.0002 25.8414C18.6471 25.8414 19.1721 26.3664 19.1721 27.0133C19.1721 27.6609 18.6471 28.1852 18.0002 28.1852ZM23.3697 25.4664C22.7229 25.4664 22.1979 24.9414 22.1979 24.2945C22.1979 23.6469 22.7229 23.1227 23.3697 23.1227C24.0174 23.1227 24.5416 23.6469 24.5416 24.2945C24.5416 24.9414 24.0174 25.4664 23.3697 25.4664ZM28.3596 22.5641C27.7127 22.5641 27.1877 22.0391 27.1877 21.3922C27.1877 20.7445 27.7127 20.2203 28.3596 20.2203C29.0072 20.2203 29.5314 20.7445 29.5314 21.3922C29.5314 22.0391 29.0072 22.5641 28.3596 22.5641Z" fill="white"/>
<path d="M35.3471 11.6078L18.5736 21.0219C18.2173 21.2219 17.783 21.2219 17.4268 21.0219L0.65332 11.6078C-0.144336 11.1609 -0.142773 10.0102 0.65332 9.56406L17.4268 0.15C17.7831 -0.05 18.2174 -0.05 18.5736 0.15L35.3471 9.56406C36.1447 10.0109 36.1432 11.1617 35.3471 11.6078Z" fill="white"/>
</svg>
