<svg width="40" height="40" viewBox="0 0 40 40" fill="none" xmlns="http://www.w3.org/2000/svg">
<g clip-path="url(#clip0_4064_1428)">
<path d="M39.9861 7.67255C39.9861 13.7496 37.3368 18.1647 37.2253 18.3488C37.001 18.7156 36.6125 18.9167 36.2117 18.9167C36.0013 18.9167 35.7893 18.861 35.5974 18.745C35.0372 18.4045 34.8577 17.6756 35.1966 17.1154C35.2213 17.0752 37.6122 13.0563 37.6122 7.67255C37.6122 4.60229 35.6159 2.37388 32.8645 2.37388C30.2461 2.37388 28.1167 4.50325 28.1167 7.12318C28.1167 8.23894 28.6568 11.074 28.8642 12.0721C28.9988 12.7143 28.5856 13.3426 27.9434 13.4773C27.3012 13.6088 26.6729 13.1987 26.5398 12.558C26.4578 12.1665 25.7397 8.68616 25.7397 7.12318C25.7397 3.19561 28.9353 0 32.8645 0C36.9236 0 39.9861 3.29774 39.9861 7.67255ZM33.0656 9.54039C33.5376 13.485 34.2216 21.1715 33.4355 21.9545L16.187 39.2046C15.1269 40.2662 13.4045 40.2662 12.343 39.203L0.809377 27.671C-0.252214 26.611 -0.252214 24.8886 0.809377 23.827L18.0595 6.57846C18.3334 6.30455 21.317 6.29217 24.672 6.46704C24.6534 6.68833 24.6054 6.89725 24.6054 7.12318C24.6054 7.9836 24.7958 9.31755 24.9954 10.4906C24.6441 11.0121 24.4383 11.6388 24.4383 12.3151C24.4383 14.1164 25.8991 15.5772 27.7004 15.5772C29.5017 15.5772 30.9626 14.1164 30.9626 12.3151C30.9626 11.2055 30.407 10.2275 29.5605 9.63943C29.3872 8.60724 29.2479 7.61065 29.2479 7.12318C29.2479 7.01795 29.2696 6.92046 29.2789 6.81678C29.6921 6.86011 30.0991 6.90498 30.4844 6.95296C32.7639 7.23305 32.7871 7.22841 33.0656 9.54039ZM23.8719 22.4497C23.6042 21.7054 23.1585 20.8124 22.1913 19.7849L23.5005 18.4742L22.0427 17.018L20.6299 18.4324C18.7388 17.1371 16.789 17.2423 15.4658 18.5655C14.0236 20.0077 14.364 21.8384 15.4225 23.9663C16.1498 25.4395 16.2829 26.2875 15.7181 26.8524C15.1378 27.4327 14.2015 27.1804 13.3519 26.3324C12.3863 25.3668 11.8199 24.1736 11.5383 23.2064L9.35008 24.5032C9.60387 25.3791 10.2879 26.628 11.2535 27.6555L9.82671 29.0839L11.2829 30.5416L12.8165 29.0096C14.8391 30.4364 16.8787 30.2445 18.2018 28.9214C19.5559 27.5642 19.6751 26.0477 18.5144 23.6382C17.7097 21.9112 17.5163 21.0631 17.9929 20.5881C18.4107 20.1702 19.1535 20.0511 20.1207 21.0183C21.1932 22.0907 21.5491 23.1322 21.7425 23.6831L23.8719 22.4497Z" fill="white"/>
</g>
<defs>
<clipPath id="clip0_4064_1428">
<rect width="40" height="40" fill="white"/>
</clipPath>
</defs>
</svg>
